<?xml version="1.0" standalone="no"?>
<!DOCTYPE svg PUBLIC "-//W3C//DTD SVG 20010904//EN"
 "http://www.w3.org/TR/2001/REC-SVG-20010904/DTD/svg10.dtd">
<svg version="1.0" xmlns="http://www.w3.org/2000/svg"
 width="300.000000pt" height="178.000000pt" viewBox="0 0 300.000000 178.000000"
 preserveAspectRatio="xMidYMid meet">
<metadata>
Created by potrace 1.10, written by Peter Selinger 2001-2011
</metadata>
<g transform="translate(0.000000,178.000000) scale(0.100000,-0.100000)"
fill="#000000" stroke="none">
<path d="M1797 1428 c-10 -18 -11 -65 -7 -208 3 -102 5 -186 5 -187 -1 -2 -76
47 -166 107 -113 76 -170 109 -182 104 -24 -9 -89 -120 -85 -146 2 -16 45 -46
168 -119 91 -54 170 -100 175 -103 13 -7 9 -10 -182 -122 -139 -82 -163 -99
-163 -120 0 -28 64 -130 87 -138 17 -7 76 27 232 133 57 39 108 71 113 71 6 0
8 -14 4 -32 -3 -18 -6 -107 -7 -197 0 -127 2 -166 13 -172 24 -15 154 -11 168
6 9 11 11 63 8 205 -2 104 -1 190 3 190 3 0 69 -42 145 -94 165 -110 178 -118
198 -110 19 7 86 119 86 144 0 13 -50 47 -177 121 -197 113 -192 110 -177 116
5 2 87 49 182 104 113 66 172 107 172 117 0 24 -61 122 -86 139 -20 13 -32 6
-175 -89 -85 -57 -159 -106 -165 -110 -7 -5 -9 51 -6 187 3 147 1 199 -8 210
-9 11 -33 15 -86 15 -66 0 -75 -2 -87 -22z m138 -28 c3 -6 6 -87 6 -182 -1
-146 1 -174 15 -190 10 -10 24 -18 33 -18 9 0 81 43 160 95 80 53 150 94 155
92 16 -5 56 -67 56 -86 0 -10 -53 -47 -137 -96 -157 -92 -193 -119 -193 -145
0 -30 74 -82 273 -191 42 -23 57 -37 57 -53 0 -30 -39 -85 -61 -86 -3 0 -63
38 -133 84 -160 106 -180 115 -206 91 -18 -17 -20 -31 -19 -192 0 -95 -3 -178
-6 -183 -9 -14 -92 -12 -102 3 -4 6 -6 86 -5 175 3 136 0 168 -13 188 -8 13
-23 24 -33 24 -9 0 -82 -43 -162 -95 -80 -52 -150 -95 -157 -95 -12 0 -45 43
-56 72 -9 25 3 34 163 128 78 47 149 94 157 106 23 36 0 58 -147 146 -74 44
-145 89 -157 100 l-22 21 20 39 c11 21 26 41 34 45 9 3 77 -36 162 -91 80 -53
155 -96 165 -96 9 0 25 11 33 24 14 20 15 50 11 188 -3 105 -1 167 6 175 12
15 94 17 103 3z"/>
<path d="M653 994 c-52 -26 -76 -74 -71 -140 7 -86 72 -141 156 -131 53 6 91
31 114 78 65 126 -71 256 -199 193z m124 -11 c91 -43 98 -176 13 -227 -44 -25
-64 -21 -35 8 57 58 55 159 -6 210 -35 30 -23 34 28 9z m-41 -26 c48 -44 57
-105 22 -157 -51 -74 -112 -68 -149 16 -25 56 -13 110 32 148 40 34 52 33 95
-7z"/>
<path d="M517 893 c-4 -3 -7 -17 -7 -30 0 -18 5 -23 25 -23 20 0 25 5 25 24 0
13 -7 27 -16 30 -19 7 -19 7 -27 -1z"/>
<path d="M891 886 c-17 -20 -2 -48 23 -44 24 3 34 37 14 49 -18 12 -24 11 -37
-5z"/>
</g>
</svg>
